<svg width="17" height="19" viewBox="0 0 17 19"  xmlns="http://www.w3.org/2000/svg">
<path fill-rule="evenodd" clip-rule="evenodd" d="M15 8C15 11.866 11.866 15 8 15C4.13401 15 1 11.866 1 8C1 4.13401 4.13401 1 8 1C11.866 1 15 4.13401 15 8ZM12.495 14.6187C11.2139 15.4905 9.66643 16 8 16C3.58172 16 0 12.4183 0 8C0 3.58172 3.58172 0 8 0C12.4183 0 16 3.58172 16 8C16 10.3925 14.9498 12.5397 13.2852 14.0057L16.4685 17.9849C16.641 18.2005 16.6061 18.5151 16.3904 18.6877C16.1748 18.8602 15.8602 18.8252 15.6877 18.6096L12.495 14.6187Z" fill="#2C3E51"/>
</svg>
